<svg width="129" height="44" viewBox="0 0 129 44" fill="none" xmlns="http://www.w3.org/2000/svg">
<path d="M26.667 8.66659C28.2169 8.66659 28.9919 8.66659 29.6278 8.83696C31.3532 9.29929 32.701 10.647 33.1633 12.3725C33.3337 13.0083 33.3337 13.7833 33.3337 15.3333V30.6666C33.3337 33.4668 33.3337 34.867 32.7887 35.9365C32.3093 36.8773 31.5444 37.6422 30.6036 38.1216C29.5341 38.6666 28.1339 38.6666 25.3337 38.6666H14.667C11.8667 38.6666 10.4666 38.6666 9.39704 38.1216C8.45623 37.6422 7.69133 36.8773 7.21196 35.9365C6.66699 34.867 6.66699 33.4668 6.66699 30.6666V15.3333C6.66699 13.7833 6.66699 13.0083 6.83736 12.3725C7.2997 10.647 8.64744 9.29929 10.3729 8.83696C11.0087 8.66659 11.7837 8.66659 13.3337 8.66659M15.0003 26.9999L18.3337 30.3333L25.8337 22.8333M16.0003 11.9999H24.0003C24.9337 11.9999 25.4005 11.9999 25.757 11.8183C26.0706 11.6585 26.3255 11.4035 26.4853 11.0899C26.667 10.7334 26.667 10.2667 26.667 9.33325V7.99992C26.667 7.0665 26.667 6.59979 26.4853 6.24327C26.3255 5.92966 26.0706 5.6747 25.757 5.51491C25.4005 5.33325 24.9337 5.33325 24.0003 5.33325H16.0003C15.0669 5.33325 14.6002 5.33325 14.2437 5.51491C13.9301 5.6747 13.6751 5.92966 13.5153 6.24327C13.3337 6.59979 13.3337 7.0665 13.3337 7.99992V9.33325C13.3337 10.2667 13.3337 10.7334 13.5153 11.0899C13.6751 11.4035 13.9301 11.6585 14.2437 11.8183C14.6002 11.9999 15.0669 11.9999 16.0003 11.9999Z" stroke="black" stroke-width="3" stroke-linecap="round" stroke-linejoin="round"/>
<path d="M53.562 17.252C52.59 17.252 51.732 17.078 50.988 16.73C50.244 16.382 49.662 15.884 49.242 15.236C48.822 14.588 48.612 13.808 48.612 12.896V12.392H50.952V12.896C50.952 13.652 51.186 14.222 51.654 14.606C52.122 14.978 52.758 15.164 53.562 15.164C54.378 15.164 54.984 15.002 55.38 14.678C55.788 14.354 55.992 13.94 55.992 13.436C55.992 13.088 55.89 12.806 55.686 12.59C55.494 12.374 55.206 12.2 54.822 12.068C54.45 11.924 53.994 11.792 53.454 11.672L53.04 11.582C52.176 11.39 51.432 11.15 50.808 10.862C50.196 10.562 49.722 10.172 49.386 9.692C49.062 9.212 48.9 8.588 48.9 7.82C48.9 7.052 49.08 6.398 49.44 5.858C49.812 5.306 50.328 4.886 50.988 4.598C51.66 4.298 52.446 4.148 53.346 4.148C54.246 4.148 55.044 4.304 55.74 4.616C56.448 4.916 57 5.372 57.396 5.984C57.804 6.584 58.008 7.34 58.008 8.252V8.792H55.668V8.252C55.668 7.772 55.572 7.388 55.38 7.1C55.2 6.8 54.936 6.584 54.588 6.452C54.24 6.308 53.826 6.236 53.346 6.236C52.626 6.236 52.092 6.374 51.744 6.65C51.408 6.914 51.24 7.28 51.24 7.748C51.24 8.06 51.318 8.324 51.474 8.54C51.642 8.756 51.888 8.936 52.212 9.08C52.536 9.224 52.95 9.35 53.454 9.458L53.868 9.548C54.768 9.74 55.548 9.986 56.208 10.286C56.88 10.586 57.402 10.982 57.774 11.474C58.146 11.966 58.332 12.596 58.332 13.364C58.332 14.132 58.134 14.81 57.738 15.398C57.354 15.974 56.802 16.43 56.082 16.766C55.374 17.09 54.534 17.252 53.562 17.252ZM62.948 17.252C62.312 17.252 61.742 17.144 61.238 16.928C60.734 16.7 60.332 16.376 60.032 15.956C59.744 15.524 59.6 15.002 59.6 14.39C59.6 13.778 59.744 13.268 60.032 12.86C60.332 12.44 60.74 12.128 61.256 11.924C61.784 11.708 62.384 11.6 63.056 11.6H65.504V11.096C65.504 10.676 65.372 10.334 65.108 10.07C64.844 9.794 64.424 9.656 63.848 9.656C63.284 9.656 62.864 9.788 62.588 10.052C62.312 10.304 62.132 10.634 62.048 11.042L59.96 10.34C60.104 9.884 60.332 9.47 60.644 9.098C60.968 8.714 61.394 8.408 61.922 8.18C62.462 7.94 63.116 7.82 63.884 7.82C65.06 7.82 65.99 8.114 66.674 8.702C67.358 9.29 67.7 10.142 67.7 11.258V14.588C67.7 14.948 67.868 15.128 68.204 15.128H68.924V17H67.412C66.968 17 66.602 16.892 66.314 16.676C66.026 16.46 65.882 16.172 65.882 15.812V15.794H65.54C65.492 15.938 65.384 16.13 65.216 16.37C65.048 16.598 64.784 16.802 64.424 16.982C64.064 17.162 63.572 17.252 62.948 17.252ZM63.344 15.416C63.98 15.416 64.496 15.242 64.892 14.894C65.3 14.534 65.504 14.06 65.504 13.472V13.292H63.218C62.798 13.292 62.468 13.382 62.228 13.562C61.988 13.742 61.868 13.994 61.868 14.318C61.868 14.642 61.994 14.906 62.246 15.11C62.498 15.314 62.864 15.416 63.344 15.416ZM73.3543 17.252C72.7183 17.252 72.1483 17.144 71.6443 16.928C71.1403 16.7 70.7383 16.376 70.4383 15.956C70.1503 15.524 70.0063 15.002 70.0063 14.39C70.0063 13.778 70.1503 13.268 70.4383 12.86C70.7383 12.44 71.1463 12.128 71.6623 11.924C72.1903 11.708 72.7903 11.6 73.4623 11.6H75.9103V11.096C75.9103 10.676 75.7783 10.334 75.5143 10.07C75.2503 9.794 74.8303 9.656 74.2543 9.656C73.6903 9.656 73.2703 9.788 72.9943 10.052C72.7183 10.304 72.5383 10.634 72.4543 11.042L70.3663 10.34C70.5103 9.884 70.7383 9.47 71.0503 9.098C71.3743 8.714 71.8003 8.408 72.3283 8.18C72.8683 7.94 73.5223 7.82 74.2903 7.82C75.4663 7.82 76.3963 8.114 77.0803 8.702C77.7643 9.29 78.1063 10.142 78.1063 11.258V14.588C78.1063 14.948 78.2743 15.128 78.6103 15.128H79.3303V17H77.8183C77.3743 17 77.0083 16.892 76.7203 16.676C76.4323 16.46 76.2883 16.172 76.2883 15.812V15.794H75.9463C75.8983 15.938 75.7903 16.13 75.6223 16.37C75.4543 16.598 75.1903 16.802 74.8303 16.982C74.4703 17.162 73.9783 17.252 73.3543 17.252ZM73.7503 15.416C74.3863 15.416 74.9023 15.242 75.2983 14.894C75.7063 14.534 75.9103 14.06 75.9103 13.472V13.292H73.6243C73.2043 13.292 72.8743 13.382 72.6343 13.562C72.3943 13.742 72.2743 13.994 72.2743 14.318C72.2743 14.642 72.4003 14.906 72.6523 15.11C72.9043 15.314 73.2703 15.416 73.7503 15.416ZM85.2905 17.252C84.3185 17.252 83.4605 17.078 82.7165 16.73C81.9725 16.382 81.3905 15.884 80.9705 15.236C80.5505 14.588 80.3405 13.808 80.3405 12.896V12.392H82.6805V12.896C82.6805 13.652 82.9145 14.222 83.3825 14.606C83.8505 14.978 84.4865 15.164 85.2905 15.164C86.1065 15.164 86.7125 15.002 87.1085 14.678C87.5165 14.354 87.7205 13.94 87.7205 13.436C87.7205 13.088 87.6185 12.806 87.4145 12.59C87.2225 12.374 86.9345 12.2 86.5505 12.068C86.1785 11.924 85.7225 11.792 85.1825 11.672L84.7685 11.582C83.9045 11.39 83.1605 11.15 82.5365 10.862C81.9245 10.562 81.4505 10.172 81.1145 9.692C80.7905 9.212 80.6285 8.588 80.6285 7.82C80.6285 7.052 80.8085 6.398 81.1685 5.858C81.5405 5.306 82.0565 4.886 82.7165 4.598C83.3885 4.298 84.1745 4.148 85.0745 4.148C85.9745 4.148 86.7725 4.304 87.4685 4.616C88.1765 4.916 88.7285 5.372 89.1245 5.984C89.5325 6.584 89.7365 7.34 89.7365 8.252V8.792H87.3965V8.252C87.3965 7.772 87.3005 7.388 87.1085 7.1C86.9285 6.8 86.6645 6.584 86.3165 6.452C85.9685 6.308 85.5545 6.236 85.0745 6.236C84.3545 6.236 83.8205 6.374 83.4725 6.65C83.1365 6.914 82.9685 7.28 82.9685 7.748C82.9685 8.06 83.0465 8.324 83.2025 8.54C83.3705 8.756 83.6165 8.936 83.9405 9.08C84.2645 9.224 84.6785 9.35 85.1825 9.458L85.5965 9.548C86.4965 9.74 87.2765 9.986 87.9365 10.286C88.6085 10.586 89.1305 10.982 89.5025 11.474C89.8745 11.966 90.0605 12.596 90.0605 13.364C90.0605 14.132 89.8625 14.81 89.4665 15.398C89.0825 15.974 88.5305 16.43 87.8105 16.766C87.1025 17.09 86.2625 17.252 85.2905 17.252ZM53.976 39.252C52.416 39.252 51.18 38.82 50.268 37.956C49.356 37.08 48.9 35.832 48.9 34.212V31.188C48.9 29.568 49.356 28.326 50.268 27.462C51.18 26.586 52.416 26.148 53.976 26.148C55.524 26.148 56.718 26.574 57.558 27.426C58.41 28.266 58.836 29.424 58.836 30.9V31.008H56.496V30.828C56.496 30.084 56.286 29.472 55.866 28.992C55.458 28.512 54.828 28.272 53.976 28.272C53.136 28.272 52.476 28.53 51.996 29.046C51.516 29.562 51.276 30.264 51.276 31.152V34.248C51.276 35.124 51.516 35.826 51.996 36.354C52.476 36.87 53.136 37.128 53.976 37.128C54.828 37.128 55.458 36.888 55.866 36.408C56.286 35.916 56.496 35.304 56.496 34.572V34.248H58.836V34.5C58.836 35.976 58.41 37.14 57.558 37.992C56.718 38.832 55.524 39.252 53.976 39.252ZM60.844 39V26.4H63.112V31.17H63.436C63.532 30.978 63.682 30.786 63.886 30.594C64.09 30.402 64.36 30.246 64.696 30.126C65.044 29.994 65.482 29.928 66.01 29.928C66.706 29.928 67.312 30.09 67.828 30.414C68.356 30.726 68.764 31.164 69.052 31.728C69.34 32.28 69.484 32.928 69.484 33.672V39H67.216V33.852C67.216 33.18 67.048 32.676 66.712 32.34C66.388 32.004 65.92 31.836 65.308 31.836C64.612 31.836 64.072 32.07 63.688 32.538C63.304 32.994 63.112 33.636 63.112 34.464V39H60.844ZM76.0038 39.252C75.1158 39.252 74.3298 39.066 73.6458 38.694C72.9738 38.31 72.4458 37.776 72.0618 37.092C71.6898 36.396 71.5038 35.58 71.5038 34.644V34.428C71.5038 33.492 71.6898 32.682 72.0618 31.998C72.4338 31.302 72.9558 30.768 73.6278 30.396C74.2998 30.012 75.0798 29.82 75.9678 29.82C76.8438 29.82 77.6058 30.018 78.2538 30.414C78.9018 30.798 79.4058 31.338 79.7658 32.034C80.1258 32.718 80.3058 33.516 80.3058 34.428V35.202H73.8078C73.8318 35.814 74.0598 36.312 74.4918 36.696C74.9238 37.08 75.4518 37.272 76.0758 37.272C76.7118 37.272 77.1798 37.134 77.4798 36.858C77.7798 36.582 78.0078 36.276 78.1638 35.94L80.0178 36.912C79.8498 37.224 79.6038 37.566 79.2798 37.938C78.9678 38.298 78.5478 38.61 78.0198 38.874C77.4918 39.126 76.8198 39.252 76.0038 39.252ZM73.8258 33.51H78.0018C77.9538 32.994 77.7438 32.58 77.3718 32.268C77.0118 31.956 76.5378 31.8 75.9498 31.8C75.3378 31.8 74.8518 31.956 74.4918 32.268C74.1318 32.58 73.9098 32.994 73.8258 33.51ZM86.5185 39.252C85.6545 39.252 84.8685 39.072 84.1605 38.712C83.4645 38.352 82.9125 37.83 82.5045 37.146C82.0965 36.462 81.8925 35.634 81.8925 34.662V34.41C81.8925 33.438 82.0965 32.61 82.5045 31.926C82.9125 31.242 83.4645 30.72 84.1605 30.36C84.8685 30 85.6545 29.82 86.5185 29.82C87.3705 29.82 88.1025 29.97 88.7145 30.27C89.3265 30.57 89.8185 30.984 90.1905 31.512C90.5745 32.028 90.8265 32.616 90.9465 33.276L88.7505 33.744C88.7025 33.384 88.5945 33.06 88.4265 32.772C88.2585 32.484 88.0185 32.256 87.7065 32.088C87.4065 31.92 87.0285 31.836 86.5725 31.836C86.1165 31.836 85.7025 31.938 85.3305 32.142C84.9705 32.334 84.6825 32.628 84.4665 33.024C84.2625 33.408 84.1605 33.882 84.1605 34.446V34.626C84.1605 35.19 84.2625 35.67 84.4665 36.066C84.6825 36.45 84.9705 36.744 85.3305 36.948C85.7025 37.14 86.1165 37.236 86.5725 37.236C87.2565 37.236 87.7725 37.062 88.1205 36.714C88.4805 36.354 88.7085 35.886 88.8045 35.31L91.0005 35.832C90.8445 36.468 90.5745 37.05 90.1905 37.578C89.8185 38.094 89.3265 38.502 88.7145 38.802C88.1025 39.102 87.3705 39.252 86.5185 39.252ZM92.8713 39V26.4H95.1393V33.366H95.4633L98.4153 30.072H101.367L97.2453 34.392L101.511 39H98.5953L95.4633 35.454H95.1393V39H92.8713ZM103.031 39V26.4H105.299V39H103.031ZM107.813 39V30.072H110.081V39H107.813ZM108.947 29.028C108.539 29.028 108.191 28.896 107.903 28.632C107.627 28.368 107.489 28.02 107.489 27.588C107.489 27.156 107.627 26.808 107.903 26.544C108.191 26.28 108.539 26.148 108.947 26.148C109.367 26.148 109.715 26.28 109.991 26.544C110.267 26.808 110.405 27.156 110.405 27.588C110.405 28.02 110.267 28.368 109.991 28.632C109.715 28.896 109.367 29.028 108.947 29.028ZM116.302 39.252C115.138 39.252 114.184 39 113.44 38.496C112.696 37.992 112.246 37.272 112.09 36.336L114.178 35.796C114.262 36.216 114.4 36.546 114.592 36.786C114.796 37.026 115.042 37.2 115.33 37.308C115.63 37.404 115.954 37.452 116.302 37.452C116.83 37.452 117.22 37.362 117.472 37.182C117.724 36.99 117.85 36.756 117.85 36.48C117.85 36.204 117.73 35.994 117.49 35.85C117.25 35.694 116.866 35.568 116.338 35.472L115.834 35.382C115.21 35.262 114.64 35.1 114.124 34.896C113.608 34.68 113.194 34.386 112.882 34.014C112.57 33.642 112.414 33.162 112.414 32.574C112.414 31.686 112.738 31.008 113.386 30.54C114.034 30.06 114.886 29.82 115.942 29.82C116.938 29.82 117.766 30.042 118.426 30.486C119.086 30.93 119.518 31.512 119.722 32.232L117.616 32.88C117.52 32.424 117.322 32.1 117.022 31.908C116.734 31.716 116.374 31.62 115.942 31.62C115.51 31.62 115.18 31.698 114.952 31.854C114.724 31.998 114.61 32.202 114.61 32.466C114.61 32.754 114.73 32.97 114.97 33.114C115.21 33.246 115.534 33.348 115.942 33.42L116.446 33.51C117.118 33.63 117.724 33.792 118.264 33.996C118.816 34.188 119.248 34.47 119.56 34.842C119.884 35.202 120.046 35.694 120.046 36.318C120.046 37.254 119.704 37.98 119.02 38.496C118.348 39 117.442 39.252 116.302 39.252ZM125.278 39C124.69 39 124.21 38.82 123.838 38.46C123.478 38.088 123.298 37.596 123.298 36.984V31.944H121.066V30.072H123.298V27.3H125.566V30.072H128.014V31.944H125.566V36.588C125.566 36.948 125.734 37.128 126.07 37.128H127.798V39H125.278Z" fill="black"/>
</svg>
